<?xml version="1.0" encoding="utf-8"?>
<!-- Generator: Adobe Illustrator 25.4.1, SVG Export Plug-In . SVG Version: 6.00 Build 0)  -->
<svg version="1.1" id="レイヤー_1" xmlns="http://www.w3.org/2000/svg" xmlns:xlink="http://www.w3.org/1999/xlink" x="0px"
	 y="0px" viewBox="0 0 225.2 225.1" style="enable-background:new 0 0 225.2 225.1;" xml:space="preserve">
<style type="text/css">
	.st0{fill:url(#SVGID_1_);}
	.st1{fill:url(#SVGID_00000037665161751252788790000012665728746076340642_);}
	.st2{fill:url(#SVGID_00000036213698448142223590000017165696672042391979_);}
	.st3{fill:url(#SVGID_00000003094660886695426550000003227143078803655067_);}
	.st4{fill:url(#SVGID_00000015324254567280807920000016246545643913631365_);}
	.st5{fill:url(#SVGID_00000096775123132422847010000007894478346844092584_);}
	.st6{fill:url(#SVGID_00000155866771127468010300000011383719195843440526_);}
	.st7{fill:url(#SVGID_00000084505941153676086660000002172114716724770979_);}
	.st8{fill:url(#SVGID_00000125602513847796869930000007556568621253486504_);}
	.st9{fill:url(#SVGID_00000139256385357797248440000001787191830017774777_);}
	.st10{fill:url(#SVGID_00000039847912429169190490000011300359077497130630_);}
	.st11{fill:#D7D780;}
	.st12{fill:#E2B64B;}
</style>
<g>
	<g>
		<linearGradient id="SVGID_1_" gradientUnits="userSpaceOnUse" x1="42.5931" y1="167.4509" x2="42.5931" y2="121.5796">
			<stop  offset="0" style="stop-color:#F9BF3C"/>
			<stop  offset="1" style="stop-color:#DFD900"/>
		</linearGradient>
		<path class="st0" d="M37.8,135.9h-4.2l4.2,1.3c-1,2.1-2.3,4.2-3.6,6.1v24.2h-5.8v-16.9c-1.4,1.5-2.9,2.9-4.3,4.1
			c-1.1-1.1-3.4-3.2-4.8-4.1c5.1-3.5,10-9.3,12.7-15.1v-4H21.2v-5.6H32v-4.2h5.8v4.2h10.4v-4.2H54v4.2h10.7v5.6H54v4.6h-5.8v-4.6
			H37.8V135.9z M57.9,161.3c2,0,2.4-1.1,2.7-7.2c1.3,1,3.7,1.9,5.3,2.3c-0.7,8-2.2,10.3-7.5,10.3h-7.7c-5.9,0-7.5-1.8-7.5-7.9v-22.6
			h5.8v9.7c4-1.9,8-4.3,10.7-6.3l4.4,4.4c-4.3,2.7-10,5.2-15.1,7.2v7.6c0,2.2,0.3,2.5,2.5,2.5H57.9z"/>
		
			<linearGradient id="SVGID_00000181765576215172483820000008799161668456384898_" gradientUnits="userSpaceOnUse" x1="89.6456" y1="167.4509" x2="89.6456" y2="122.2673">
			<stop  offset="0" style="stop-color:#F9BF3C"/>
			<stop  offset="1" style="stop-color:#DFD900"/>
		</linearGradient>
		<path style="fill:url(#SVGID_00000181765576215172483820000008799161668456384898_);" d="M92.5,137.5c0,7.5,4.6,18.8,19.9,24.4
			c-1.3,1.3-3.2,3.8-4.1,5.5c-11.7-4.8-17.6-14.6-19-19.5c-1.3,5-6.7,14.5-18.2,19.5c-0.8-1.3-2.8-3.8-4.1-5
			c14.8-5.6,19.3-17.5,19.3-24.9v-15.3h6.3V137.5z M79.7,132.6c-0.8,6.1-2.3,12-6.5,15.5l-5.3-3.3c3.6-3,5.2-7.9,5.9-13.5
			L79.7,132.6z M110.2,133.7c-2.5,4.8-5.5,10-7.9,13.4l-5.1-2.2c2.4-3.7,5.1-9.3,6.6-13.6L110.2,133.7z"/>
		
			<linearGradient id="SVGID_00000026165386712827387000000017233524603677492150_" gradientUnits="userSpaceOnUse" x1="136.3789" y1="167.3528" x2="136.3789" y2="121.6286">
			<stop  offset="0" style="stop-color:#F9BF3C"/>
			<stop  offset="1" style="stop-color:#DFD900"/>
		</linearGradient>
		<path style="fill:url(#SVGID_00000026165386712827387000000017233524603677492150_);" d="M140.7,140.8c3.2,9.6,9.2,17.3,18.4,21
			c-1.5,1.2-3.4,3.8-4.3,5.5c-8.9-4.2-14.6-11.3-18.4-20.8c-2.7,8.2-8,15.9-18.4,20.9c-0.9-1.6-2.7-3.7-4.4-5
			c11.2-5,15.9-13.2,17.8-21.6h-16.9v-6h17.9c0.5-4.6,0.4-9.1,0.5-13.1h6.4c0,4-0.1,8.5-0.6,13.1H158v6H140.7z"/>
		
			<linearGradient id="SVGID_00000095302720957243056360000008968511095258314639_" gradientUnits="userSpaceOnUse" x1="183.0634" y1="167.5008" x2="183.0634" y2="121.6286">
			<stop  offset="0" style="stop-color:#F9BF3C"/>
			<stop  offset="1" style="stop-color:#DFD900"/>
		</linearGradient>
		<path style="fill:url(#SVGID_00000095302720957243056360000008968511095258314639_);" d="M171.4,138.1c-2.6,1.9-5.5,3.5-8.3,4.9
			c-0.7-1.4-2.2-3.6-3.4-4.9c8.3-3.7,16.2-10.7,19.8-16.5h6.1c5.2,7.2,13,12.8,20.8,15.6c-1.5,1.5-2.8,3.6-3.8,5.4
			c-2.7-1.3-5.5-2.9-8.3-4.8v3.9h-22.9V138.1z M162.8,145.7h40.6v5.4h-22c-1.4,2.9-3,5.9-4.5,8.7c4.7-0.1,9.8-0.3,14.8-0.5
			c-1.5-1.8-3.2-3.5-4.8-5l5.2-2.7c4.4,3.8,8.9,8.9,11.2,12.6l-5.5,3.3c-0.5-0.9-1.2-2-2-3c-11.5,0.6-23.7,1.1-32,1.5l-0.8-5.7
			l7.4-0.2c1.3-2.8,2.7-6,3.7-8.9h-11.4V145.7z M192.3,136.3c-3.8-2.8-7.2-6-9.4-9.1c-2.1,3-5.3,6.2-9,9.1H192.3z"/>
	</g>
	<g>
		
			<linearGradient id="SVGID_00000174586920206334850970000002383948988025787809_" gradientUnits="userSpaceOnUse" x1="70.59" y1="114.0042" x2="70.59" y2="47.5157">
			<stop  offset="0" style="stop-color:#F9BF3C"/>
			<stop  offset="1" style="stop-color:#DFD900"/>
		</linearGradient>
		<path style="fill:url(#SVGID_00000174586920206334850970000002383948988025787809_);" d="M104.9,106.2v7.8h-67v-7.8h29V101H47.3
			v-7.1h19.6v-4.6H50.8c-2.2,2.9-4.6,5.6-7,7.6c-1.7-1.6-5.4-4.4-7.5-5.6c5-3.8,9.8-9.6,12.6-15.5h-3.5V47.5h52v28.3H51.8l6.3,1.8
			c-0.7,1.4-1.4,2.7-2.2,4.2h11v-4.6h9.4v4.6h23.9v7.5H76.3v4.6h20.4v7.1H76.3v5.2H104.9z M54.2,58.4h33.6v-4H54.2V58.4z M54.2,68.9
			h33.6v-4.1H54.2V68.9z"/>
		
			<linearGradient id="SVGID_00000000939305242686353820000014240238106495731600_" gradientUnits="userSpaceOnUse" x1="115.6957" y1="111.6462" x2="115.6957" y2="92.247">
			<stop  offset="0" style="stop-color:#F9BF3C"/>
			<stop  offset="1" style="stop-color:#DFD900"/>
		</linearGradient>
		<path style="fill:url(#SVGID_00000000939305242686353820000014240238106495731600_);" d="M111.3,109.4c2.4-4.1,3.3-10.9,3.7-17.1
			l5,1.1c-0.5,6.7-1.3,13.9-4,18.3L111.3,109.4z"/>
		
			<linearGradient id="SVGID_00000108993331437800096840000000632972186187685533_" gradientUnits="userSpaceOnUse" x1="130.4162" y1="115.9855" x2="130.4162" y2="47.5917">
			<stop  offset="0" style="stop-color:#F9BF3C"/>
			<stop  offset="1" style="stop-color:#DFD900"/>
		</linearGradient>
		<path style="fill:url(#SVGID_00000108993331437800096840000000632972186187685533_);" d="M135.1,82.2v-4.8h8.1v-6.8h-8.1v-4.5h8.1
			v-6.8h-8.1v-4.4h9.3v-7.3h-29.1v41.6h22.5c-0.2,3.1-0.3,5.7-0.5,8c-0.7-2.1-1.7-4.3-2.6-6.2l-3.7,1.2c1.5,3.1,3,7.2,3.5,9.9
			l2.4-0.9c-0.4,4.2-0.9,6.2-1.5,6.9c-0.5,0.8-1.1,1-2.1,1c-0.9,0-2.7,0-4.8-0.3c1.1,2,1.7,4.9,1.9,7.1c2.7,0.2,5.2,0.1,6.8-0.2
			c1.9-0.3,3.2-0.9,4.6-2.7c1.8-2.3,2.7-9.4,3.5-27.8c0.1-1,0.2-3,0.2-3H135.1z M127.8,82.2h-4.9v-4.8h4.9V82.2z M127.8,70.6h-4.9
			v-4.5h4.9V70.6z M127.8,59.3h-4.9v-4.4h4.9V59.3z"/>
		
			<linearGradient id="SVGID_00000029745782392935410450000000015110467992594603_" gradientUnits="userSpaceOnUse" x1="123.07" y1="107.8425" x2="123.07" y2="93.388">
			<stop  offset="0" style="stop-color:#F9BF3C"/>
			<stop  offset="1" style="stop-color:#DFD900"/>
		</linearGradient>
		<path style="fill:url(#SVGID_00000029745782392935410450000000015110467992594603_);" d="M120.7,93.8c0.5,4.5,0.8,10.3,0.5,14.1
			l4.2-0.5c0.2-3.7-0.2-9.5-0.8-13.9L120.7,93.8z"/>
		
			<linearGradient id="SVGID_00000152980455077610107670000006537929319851020672_" gradientUnits="userSpaceOnUse" x1="129.1228" y1="105.5605" x2="129.1228" y2="92.5517">
			<stop  offset="0" style="stop-color:#F9BF3C"/>
			<stop  offset="1" style="stop-color:#DFD900"/>
		</linearGradient>
		<path style="fill:url(#SVGID_00000152980455077610107670000006537929319851020672_);" d="M129.7,92.6l-3.8,0.7
			c1.1,4,2.2,9.1,2.4,12.3l4-0.8C132,101.5,131,96.4,129.7,92.6z"/>
		
			<linearGradient id="SVGID_00000104687196820966672380000013510395594127418557_" gradientUnits="userSpaceOnUse" x1="165.0684" y1="116.0584" x2="165.0684" y2="47.6676">
			<stop  offset="0" style="stop-color:#F9BF3C"/>
			<stop  offset="1" style="stop-color:#DFD900"/>
		</linearGradient>
		<polygon style="fill:url(#SVGID_00000104687196820966672380000013510395594127418557_);" points="155.7,104 182.9,104 
			182.9,112.3 155.7,112.3 155.7,116.1 147.2,116.1 147.2,47.7 181.9,47.7 181.9,55.9 155.7,55.9 		"/>
		
			<linearGradient id="SVGID_00000008135360530416911300000002493705514532947090_" gradientUnits="userSpaceOnUse" x1="171.9465" y1="97.8384" x2="171.9465" y2="61.7801">
			<stop  offset="0" style="stop-color:#F9BF3C"/>
			<stop  offset="1" style="stop-color:#DFD900"/>
		</linearGradient>
		<polygon style="fill:url(#SVGID_00000008135360530416911300000002493705514532947090_);" points="177.6,97.8 168.2,89.4 
			155.9,92.4 161,80.8 154.4,70.1 167,71.4 175.2,61.8 177.8,74.1 189.5,78.9 178.5,85.3 		"/>
	</g>
</g>
<g>
	<g>
		<circle class="st11" cx="22" cy="173.1" r="3"/>
		<circle class="st12" cx="22" cy="161.9" r="3"/>
	</g>
	<g>
		<circle class="st11" cx="14.8" cy="160.4" r="3"/>
		<circle class="st12" cx="16.2" cy="149.3" r="3"/>
	</g>
	<g>
		<circle class="st11" cx="9.3" cy="146.9" r="3"/>
		<circle class="st12" cx="12.2" cy="136.1" r="3"/>
	</g>
	<g>
		<circle class="st11" cx="5.6" cy="132.8" r="3"/>
		<circle class="st12" cx="10" cy="122.5" r="3"/>
	</g>
	<g>
		<circle class="st11" cx="3.9" cy="118.3" r="3"/>
		<circle class="st12" cx="9.6" cy="108.7" r="3"/>
	</g>
	<g>
		<circle class="st11" cx="4.1" cy="103.7" r="3"/>
		<circle class="st12" cx="11" cy="95" r="3"/>
	</g>
	<g>
		<circle class="st11" cx="6.2" cy="89.3" r="3"/>
		<circle class="st12" cx="14.3" cy="81.5" r="3"/>
	</g>
	<g>
		<circle class="st11" cx="10.3" cy="75.3" r="3"/>
		<circle class="st12" cx="19.3" cy="68.7" r="3"/>
	</g>
	<g>
		<circle class="st11" cx="16.2" cy="62" r="3"/>
		<circle class="st12" cx="26" cy="56.6" r="3"/>
	</g>
	<g>
		<circle class="st11" cx="23.8" cy="49.5" r="3"/>
		<circle class="st12" cx="34.2" cy="45.5" r="3"/>
	</g>
	<g>
		<circle class="st11" cx="33" cy="38.2" r="3"/>
		<circle class="st12" cx="43.9" cy="35.6" r="3"/>
	</g>
	<g>
		<circle class="st11" cx="43.6" cy="28.3" r="3"/>
		<circle class="st12" cx="54.7" cy="27.1" r="3"/>
	</g>
	<g>
		<circle class="st11" cx="55.5" cy="19.8" r="3"/>
		<circle class="st12" cx="66.6" cy="20.1" r="3"/>
	</g>
	<g>
		<circle class="st11" cx="68.3" cy="13" r="3"/>
		<circle class="st12" cx="79.4" cy="14.8" r="3"/>
	</g>
	<g>
		<circle class="st11" cx="82" cy="7.9" r="3"/>
		<circle class="st12" cx="92.7" cy="11.2" r="3"/>
	</g>
	<g>
		<circle class="st11" cx="96.2" cy="4.7" r="3"/>
		<circle class="st12" cx="106.4" cy="9.4" r="3"/>
	</g>
	<g>
		<circle class="st11" cx="110.8" cy="3.5" r="3"/>
		<circle class="st12" cx="120.2" cy="9.5" r="3"/>
	</g>
	<g>
		<circle class="st11" cx="125.3" cy="4.2" r="3"/>
		<circle class="st12" cx="133.9" cy="11.4" r="3"/>
	</g>
	<g>
		<circle class="st11" cx="139.7" cy="6.8" r="3"/>
		<circle class="st12" cx="147.2" cy="15.1" r="3"/>
	</g>
	<g>
		<circle class="st11" cx="153.5" cy="11.3" r="3"/>
		<circle class="st12" cx="159.9" cy="20.6" r="3"/>
	</g>
	<g>
		<circle class="st11" cx="166.7" cy="17.7" r="3"/>
		<circle class="st12" cx="171.7" cy="27.6" r="3"/>
	</g>
	<g>
		<circle class="st11" cx="178.8" cy="25.7" r="3"/>
		<circle class="st12" cx="182.5" cy="36.2" r="3"/>
	</g>
	<g>
		<circle class="st11" cx="189.8" cy="35.2" r="3"/>
		<circle class="st12" cx="192.1" cy="46.2" r="3"/>
	</g>
	<g>
		<circle class="st11" cx="199.5" cy="46.2" r="3"/>
		<circle class="st12" cx="200.2" cy="57.4" r="3"/>
	</g>
	<g>
		<circle class="st11" cx="207.5" cy="58.3" r="3"/>
		<circle class="st12" cx="206.8" cy="69.5" r="3"/>
	</g>
	<g>
		<circle class="st11" cx="213.9" cy="71.4" r="3"/>
		<circle class="st12" cx="211.7" cy="82.4" r="3"/>
	</g>
	<g>
		<circle class="st11" cx="218.5" cy="85.3" r="3"/>
		<circle class="st12" cx="214.8" cy="95.8" r="3"/>
	</g>
	<g>
		<circle class="st11" cx="221.2" cy="99.6" r="3"/>
		<circle class="st12" cx="216.2" cy="109.6" r="3"/>
	</g>
	<g>
		<circle class="st11" cx="222" cy="114.2" r="3"/>
		<circle class="st12" cx="215.6" cy="123.4" r="3"/>
	</g>
	<g>
		<circle class="st11" cx="220.8" cy="128.7" r="3"/>
		<circle class="st12" cx="213.3" cy="137" r="3"/>
	</g>
	<g>
		<circle class="st11" cx="217.7" cy="142.9" r="3"/>
		<circle class="st12" cx="209.1" cy="150.2" r="3"/>
	</g>
	<g>
		<circle class="st11" cx="212.7" cy="156.6" r="3"/>
		<circle class="st12" cx="203.3" cy="162.7" r="3"/>
	</g>
	<g>
		<circle class="st11" cx="205.9" cy="169.6" r="3"/>
		<circle class="st12" cx="195.8" cy="174.3" r="3"/>
	</g>
	<g>
		<circle class="st11" cx="197.5" cy="181.5" r="3"/>
		<circle class="st12" cx="186.8" cy="184.8" r="3"/>
	</g>
	<g>
		<circle class="st11" cx="187.6" cy="192.1" r="3"/>
		<circle class="st12" cx="176.6" cy="194" r="3"/>
	</g>
	<g>
		<circle class="st11" cx="176.3" cy="201.4" r="3"/>
		<circle class="st12" cx="165.1" cy="201.8" r="3"/>
	</g>
	<g>
		<circle class="st11" cx="163.9" cy="209" r="3"/>
		<circle class="st12" cx="152.8" cy="207.9" r="3"/>
	</g>
	<g>
		<circle class="st11" cx="150.6" cy="215" r="3"/>
		<circle class="st12" cx="139.7" cy="212.4" r="3"/>
	</g>
	<g>
		<circle class="st11" cx="136.6" cy="219.1" r="3"/>
		<circle class="st12" cx="126.2" cy="215.1" r="3"/>
	</g>
	<g>
		<circle class="st11" cx="122.2" cy="221.3" r="3"/>
		<circle class="st12" cx="112.4" cy="216" r="3"/>
	</g>
	<g>
		<circle class="st11" cx="107.6" cy="221.6" r="3"/>
		<circle class="st12" cx="98.6" cy="215" r="3"/>
	</g>
	<g>
		<circle class="st11" cx="93.2" cy="219.9" r="3"/>
		<circle class="st12" cx="85.1" cy="212.2" r="3"/>
	</g>
	<g>
		<circle class="st11" cx="79" cy="216.4" r="3"/>
		<circle class="st12" cx="72.1" cy="207.6" r="3"/>
	</g>
	<g>
		<circle class="st11" cx="65.5" cy="210.9" r="3"/>
		<circle class="st12" cx="59.8" cy="201.3" r="3"/>
	</g>
	<g>
		<circle class="st11" cx="52.8" cy="203.7" r="3"/>
		<circle class="st12" cx="48.4" cy="193.4" r="3"/>
	</g>
	<g>
		<circle class="st11" cx="41.2" cy="194.9" r="3"/>
		<circle class="st12" cx="38.2" cy="184.1" r="3"/>
	</g>
	<g>
		<circle class="st11" cx="30.9" cy="184.6" r="3"/>
		<circle class="st12" cx="29.4" cy="173.5" r="3"/>
	</g>
</g>
</svg>
